<?xml version="1.0" encoding="UTF-8" standalone="no"?>
<!DOCTYPE svg PUBLIC "-//W3C//DTD SVG 1.1//EN"
 "http://www.w3.org/Graphics/SVG/1.1/DTD/svg11.dtd">
<!-- Generated by graphviz version 2.47.0 (20210316.0004)
 -->
<!-- Title: dependencies Pages: 1 -->
<svg width="1884pt" height="284pt"
 viewBox="0.00 0.00 1884.00 284.00" xmlns="http://www.w3.org/2000/svg" xmlns:xlink="http://www.w3.org/1999/xlink">
<g id="graph0" class="graph" transform="scale(1 1) rotate(0) translate(4 280)">
<title>dependencies</title>
<polygon fill="white" stroke="transparent" points="-4,4 -4,-280 1880,-280 1880,4 -4,4"/>
<text text-anchor="start" x="917.01" y="-42.4" font-family="sans-serif" font-weight="bold" font-size="14.00">Legend</text>
<polygon fill="#ffffb3" stroke="transparent" points="704,-10 704,-30 724,-30 724,-10 704,-10"/>
<text text-anchor="start" x="727.63" y="-15.4" font-family="sans-serif" font-size="14.00"> &#160;Declarations</text>
<polygon fill="#8dd3c7" stroke="transparent" points="817,-10 817,-30 837,-30 837,-10 817,-10"/>
<text text-anchor="start" x="840.73" y="-15.4" font-family="sans-serif" font-size="14.00"> &#160;Module</text>
<polygon fill="#80b1d3" stroke="transparent" points="903,-10 903,-30 923,-30 923,-10 903,-10"/>
<text text-anchor="start" x="926.78" y="-15.4" font-family="sans-serif" font-size="14.00"> &#160;Bootstrap</text>
<polygon fill="#fdb462" stroke="transparent" points="1000,-10 1000,-30 1020,-30 1020,-10 1000,-10"/>
<text text-anchor="start" x="1023.67" y="-15.4" font-family="sans-serif" font-size="14.00"> &#160;Providers</text>
<polygon fill="#fb8072" stroke="transparent" points="1096,-10 1096,-30 1116,-30 1116,-10 1096,-10"/>
<text text-anchor="start" x="1119.73" y="-15.4" font-family="sans-serif" font-size="14.00"> &#160;Exports</text>
<g id="clust1" class="cluster">
<title>cluster_AppModule</title>
<polygon fill="none" stroke="black" stroke-dasharray="1,5" points="8,-70 8,-268 1868,-268 1868,-70 8,-70"/>
</g>
<g id="clust15" class="cluster">
<title>cluster_AppModule_imports</title>
<polygon fill="none" stroke="black" points="1716,-78 1716,-130 1860,-130 1860,-78 1716,-78"/>
</g>
<g id="clust17" class="cluster">
<title>cluster_AppModule_bootstrap</title>
<polygon fill="none" stroke="black" points="849,-208 849,-260 973,-260 973,-208 849,-208"/>
</g>
<g id="clust2" class="cluster">
<title>cluster_AppModule_declarations</title>
<polygon fill="none" stroke="black" points="16,-78 16,-130 1708,-130 1708,-78 16,-78"/>
</g>
<!-- AboutMeComponent -->
<g id="node1" class="node">
<title>AboutMeComponent</title>
<polygon fill="#ffffb3" stroke="black" points="1700.49,-122 1565.51,-122 1565.51,-86 1700.49,-86 1700.49,-122"/>
<text text-anchor="middle" x="1633" y="-99.8" font-family="Times,serif" font-size="14.00">AboutMeComponent</text>
</g>
<!-- AppModule -->
<g id="node13" class="node">
<title>AppModule</title>
<polygon fill="#8dd3c7" stroke="black" points="952.66,-187 949.66,-191 928.66,-191 925.66,-187 869.34,-187 869.34,-151 952.66,-151 952.66,-187"/>
<text text-anchor="middle" x="911" y="-164.8" font-family="Times,serif" font-size="14.00">AppModule</text>
</g>
<!-- AboutMeComponent&#45;&gt;AppModule -->
<g id="edge1" class="edge">
<title>AboutMeComponent&#45;&gt;AppModule</title>
<path fill="none" stroke="black" d="M1633,-122.04C1633,-143.66 1633,-177 1633,-177 1633,-177 962.67,-177 962.67,-177"/>
<polygon fill="black" stroke="black" points="962.67,-173.5 952.67,-177 962.67,-180.5 962.67,-173.5"/>
</g>
<!-- AppComponent -->
<g id="node2" class="node">
<title>AppComponent</title>
<polygon fill="#ffffb3" stroke="black" points="1547.94,-122 1442.06,-122 1442.06,-86 1547.94,-86 1547.94,-122"/>
<text text-anchor="middle" x="1495" y="-99.8" font-family="Times,serif" font-size="14.00">AppComponent</text>
</g>
<!-- AppComponent&#45;&gt;AppModule -->
<g id="edge2" class="edge">
<title>AppComponent&#45;&gt;AppModule</title>
<path fill="none" stroke="black" d="M1495,-122.22C1495,-142.37 1495,-172 1495,-172 1495,-172 963,-172 963,-172"/>
<polygon fill="black" stroke="black" points="963,-168.5 953,-172 963,-175.5 963,-168.5"/>
</g>
<!-- ContactComponent -->
<g id="node3" class="node">
<title>ContactComponent</title>
<polygon fill="#ffffb3" stroke="black" points="1424.38,-122 1299.62,-122 1299.62,-86 1424.38,-86 1424.38,-122"/>
<text text-anchor="middle" x="1362" y="-99.8" font-family="Times,serif" font-size="14.00">ContactComponent</text>
</g>
<!-- ContactComponent&#45;&gt;AppModule -->
<g id="edge3" class="edge">
<title>ContactComponent&#45;&gt;AppModule</title>
<path fill="none" stroke="black" d="M1362,-122.22C1362,-140.83 1362,-167 1362,-167 1362,-167 963.02,-167 963.02,-167"/>
<polygon fill="black" stroke="black" points="963.02,-163.5 953.02,-167 963.02,-170.5 963.02,-163.5"/>
</g>
<!-- DataProtectionComponent -->
<g id="node4" class="node">
<title>DataProtectionComponent</title>
<polygon fill="#ffffb3" stroke="black" points="1281.8,-122 1116.2,-122 1116.2,-86 1281.8,-86 1281.8,-122"/>
<text text-anchor="middle" x="1199" y="-99.8" font-family="Times,serif" font-size="14.00">DataProtectionComponent</text>
</g>
<!-- DataProtectionComponent&#45;&gt;AppModule -->
<g id="edge4" class="edge">
<title>DataProtectionComponent&#45;&gt;AppModule</title>
<path fill="none" stroke="black" d="M1199,-122.03C1199,-139.06 1199,-162 1199,-162 1199,-162 962.88,-162 962.88,-162"/>
<polygon fill="black" stroke="black" points="962.88,-158.5 952.88,-162 962.88,-165.5 962.88,-158.5"/>
</g>
<!-- ErrorComponent -->
<g id="node5" class="node">
<title>ErrorComponent</title>
<polygon fill="#ffffb3" stroke="black" points="1098.37,-122 987.63,-122 987.63,-86 1098.37,-86 1098.37,-122"/>
<text text-anchor="middle" x="1043" y="-99.8" font-family="Times,serif" font-size="14.00">ErrorComponent</text>
</g>
<!-- ErrorComponent&#45;&gt;AppModule -->
<g id="edge5" class="edge">
<title>ErrorComponent&#45;&gt;AppModule</title>
<path fill="none" stroke="black" d="M1043,-122.24C1043,-137.57 1043,-157 1043,-157 1043,-157 962.77,-157 962.77,-157"/>
<polygon fill="black" stroke="black" points="962.77,-153.5 952.77,-157 962.77,-160.5 962.77,-153.5"/>
</g>
<!-- FooterComponent -->
<g id="node6" class="node">
<title>FooterComponent</title>
<polygon fill="#ffffb3" stroke="black" points="969.88,-122 852.12,-122 852.12,-86 969.88,-86 969.88,-122"/>
<text text-anchor="middle" x="911" y="-99.8" font-family="Times,serif" font-size="14.00">FooterComponent</text>
</g>
<!-- FooterComponent&#45;&gt;AppModule -->
<g id="edge6" class="edge">
<title>FooterComponent&#45;&gt;AppModule</title>
<path fill="none" stroke="black" d="M911,-122.11C911,-122.11 911,-140.99 911,-140.99"/>
<polygon fill="black" stroke="black" points="907.5,-140.99 911,-150.99 914.5,-140.99 907.5,-140.99"/>
</g>
<!-- HeaderComponent -->
<g id="node7" class="node">
<title>HeaderComponent</title>
<polygon fill="#ffffb3" stroke="black" points="833.74,-122 712.26,-122 712.26,-86 833.74,-86 833.74,-122"/>
<text text-anchor="middle" x="773" y="-99.8" font-family="Times,serif" font-size="14.00">HeaderComponent</text>
</g>
<!-- HeaderComponent&#45;&gt;AppModule -->
<g id="edge7" class="edge">
<title>HeaderComponent&#45;&gt;AppModule</title>
<path fill="none" stroke="black" d="M773,-122.24C773,-137.57 773,-157 773,-157 773,-157 859.22,-157 859.22,-157"/>
<polygon fill="black" stroke="black" points="859.22,-160.5 869.22,-157 859.22,-153.5 859.22,-160.5"/>
</g>
<!-- ImprintComponent -->
<g id="node8" class="node">
<title>ImprintComponent</title>
<polygon fill="#ffffb3" stroke="black" points="693.83,-122 570.17,-122 570.17,-86 693.83,-86 693.83,-122"/>
<text text-anchor="middle" x="632" y="-99.8" font-family="Times,serif" font-size="14.00">ImprintComponent</text>
</g>
<!-- ImprintComponent&#45;&gt;AppModule -->
<g id="edge8" class="edge">
<title>ImprintComponent&#45;&gt;AppModule</title>
<path fill="none" stroke="black" d="M632,-122.03C632,-139.06 632,-162 632,-162 632,-162 859.23,-162 859.23,-162"/>
<polygon fill="black" stroke="black" points="859.23,-165.5 869.23,-162 859.23,-158.5 859.23,-165.5"/>
</g>
<!-- LandComponent -->
<g id="node9" class="node">
<title>LandComponent</title>
<polygon fill="#ffffb3" stroke="black" points="552.1,-122 441.9,-122 441.9,-86 552.1,-86 552.1,-122"/>
<text text-anchor="middle" x="497" y="-99.8" font-family="Times,serif" font-size="14.00">LandComponent</text>
</g>
<!-- LandComponent&#45;&gt;AppModule -->
<g id="edge9" class="edge">
<title>LandComponent&#45;&gt;AppModule</title>
<path fill="none" stroke="black" d="M497,-122.22C497,-140.83 497,-167 497,-167 497,-167 859.03,-167 859.03,-167"/>
<polygon fill="black" stroke="black" points="859.03,-170.5 869.03,-167 859.03,-163.5 859.03,-170.5"/>
</g>
<!-- LaunchComponent -->
<g id="node10" class="node">
<title>LaunchComponent</title>
<polygon fill="#ffffb3" stroke="black" points="423.81,-122 300.19,-122 300.19,-86 423.81,-86 423.81,-122"/>
<text text-anchor="middle" x="362" y="-99.8" font-family="Times,serif" font-size="14.00">LaunchComponent</text>
</g>
<!-- LaunchComponent&#45;&gt;AppModule -->
<g id="edge10" class="edge">
<title>LaunchComponent&#45;&gt;AppModule</title>
<path fill="none" stroke="black" d="M362,-122.22C362,-142.37 362,-172 362,-172 362,-172 859.29,-172 859.29,-172"/>
<polygon fill="black" stroke="black" points="859.29,-175.5 869.29,-172 859.29,-168.5 859.29,-175.5"/>
</g>
<!-- PortfolioComponent -->
<g id="node11" class="node">
<title>PortfolioComponent</title>
<polygon fill="#ffffb3" stroke="black" points="282.61,-122 151.39,-122 151.39,-86 282.61,-86 282.61,-122"/>
<text text-anchor="middle" x="217" y="-99.8" font-family="Times,serif" font-size="14.00">PortfolioComponent</text>
</g>
<!-- PortfolioComponent&#45;&gt;AppModule -->
<g id="edge11" class="edge">
<title>PortfolioComponent&#45;&gt;AppModule</title>
<path fill="none" stroke="black" d="M217,-122.04C217,-143.66 217,-177 217,-177 217,-177 859.15,-177 859.15,-177"/>
<polygon fill="black" stroke="black" points="859.15,-180.5 869.15,-177 859.15,-173.5 859.15,-180.5"/>
</g>
<!-- SendComponent -->
<g id="node12" class="node">
<title>SendComponent</title>
<polygon fill="#ffffb3" stroke="black" points="133.83,-122 24.17,-122 24.17,-86 133.83,-86 133.83,-122"/>
<text text-anchor="middle" x="79" y="-99.8" font-family="Times,serif" font-size="14.00">SendComponent</text>
</g>
<!-- SendComponent&#45;&gt;AppModule -->
<g id="edge12" class="edge">
<title>SendComponent&#45;&gt;AppModule</title>
<path fill="none" stroke="black" d="M79,-122.09C79,-145.13 79,-182 79,-182 79,-182 859.17,-182 859.17,-182"/>
<polygon fill="black" stroke="black" points="859.17,-185.5 869.17,-182 859.17,-178.5 859.17,-185.5"/>
</g>
<!-- AppComponent  -->
<g id="node15" class="node">
<title>AppComponent </title>
<polygon fill="#80b1d3" stroke="black" points="965.44,-252 856.56,-252 856.56,-216 965.44,-216 965.44,-252"/>
<text text-anchor="middle" x="911" y="-229.8" font-family="Times,serif" font-size="14.00">AppComponent </text>
</g>
<!-- AppModule&#45;&gt;AppComponent  -->
<g id="edge14" class="edge">
<title>AppModule&#45;&gt;AppComponent </title>
<path fill="none" stroke="black" stroke-dasharray="1,5" d="M911,-187.11C911,-187.11 911,-205.99 911,-205.99"/>
<polygon fill="black" stroke="black" points="907.5,-205.99 911,-215.99 914.5,-205.99 907.5,-205.99"/>
</g>
<!-- AppRoutingModule -->
<g id="node14" class="node">
<title>AppRoutingModule</title>
<polygon fill="#8dd3c7" stroke="black" points="1852.27,-122 1849.27,-126 1828.27,-126 1825.27,-122 1723.73,-122 1723.73,-86 1852.27,-86 1852.27,-122"/>
<text text-anchor="middle" x="1788" y="-99.8" font-family="Times,serif" font-size="14.00">AppRoutingModule</text>
</g>
<!-- AppRoutingModule&#45;&gt;AppModule -->
<g id="edge13" class="edge">
<title>AppRoutingModule&#45;&gt;AppModule</title>
<path fill="none" stroke="black" d="M1788,-122.09C1788,-145.13 1788,-182 1788,-182 1788,-182 962.71,-182 962.71,-182"/>
<polygon fill="black" stroke="black" points="962.71,-178.5 952.71,-182 962.71,-185.5 962.71,-178.5"/>
</g>
</g>
</svg>
